<?xml version="1.0" encoding="utf-8"?>
<!-- Generator: Adobe Illustrator 28.2.0, SVG Export Plug-In . SVG Version: 6.00 Build 0)  -->
<svg version="1.1" xmlns="http://www.w3.org/2000/svg" xmlns:xlink="http://www.w3.org/1999/xlink" x="0px" y="0px"
	 viewBox="0 0 16 16" style="enable-background:new 0 0 16 16;" xml:space="preserve">
<style type="text/css">
	.st0{display:none;}
	.st1{fill:#FFFFFF;stroke:#000000;stroke-width:0.8772;stroke-miterlimit:10;}
	.st2{display:none;fill:#FFFFFF;stroke:#000000;stroke-width:0.8772;stroke-miterlimit:10;}
	.st3{fill:none;stroke:#000000;stroke-width:1.48;stroke-linecap:round;stroke-miterlimit:10;}
	.st4{fill:none;stroke:#000000;stroke-width:0.5;stroke-linecap:round;stroke-miterlimit:10;}
</style>
<g id="Layer_1">
	<path d="M14.3,4.1l-6-3.5C8.2,0.5,8.1,0.5,8,0.5c-0.1,0-0.2,0-0.3,0.1l-6,3.5c-0.1,0-0.1,0.1-0.2,0.2c0,0.1-0.1,0.2-0.1,0.2v7
		c0,0.1,0,0.2,0.1,0.2c0,0.1,0.1,0.1,0.2,0.2l6,3.5c0.1,0,0.2,0.1,0.3,0.1c0.1,0,0.2,0,0.3-0.1l6-3.5c0.1,0,0.1-0.1,0.2-0.2
		c0-0.1,0.1-0.2,0.1-0.2v-7c0-0.1,0-0.2-0.1-0.2C14.4,4.2,14.3,4.1,14.3,4.1L14.3,4.1z M13.5,11.2L8,14.4l-5.5-3.2V4.8L8,1.6
		l5.5,3.2V11.2z"/>
	<circle class="st1" cx="8" cy="13" r="0.3"/>
	<g>
		<g>
			<circle class="st1" cx="8" cy="8" r="0.3"/>
			<line class="st3" x1="6" y1="10" x2="10" y2="6"/>
			<line class="st3" x1="6" y1="6" x2="10" y2="10"/>
		</g>
		<g>
			<circle class="st1" cx="8" cy="8" r="0.3"/>
			<line class="st3" x1="5.2" y1="8" x2="10.8" y2="8"/>
			<line class="st3" x1="8" y1="5.2" x2="8" y2="10.8"/>
		</g>
	</g>
	<circle class="st1" cx="8" cy="3" r="0.3"/>
</g>
<g id="Layer_3">
</g>
<g id="_x31_">
</g>
<g id="_x32_">
</g>
</svg>
