<?xml version="1.0" encoding="utf-8"?>
<!-- Generator: Adobe Illustrator 28.2.0, SVG Export Plug-In . SVG Version: 6.00 Build 0)  -->
<svg version="1.1" xmlns="http://www.w3.org/2000/svg" xmlns:xlink="http://www.w3.org/1999/xlink" x="0px" y="0px"
	 viewBox="0 0 16 16" style="enable-background:new 0 0 16 16;" xml:space="preserve">
<style type="text/css">
	.st0{display:none;}
	.st1{fill:#FFFFFF;stroke:#000000;stroke-width:0.8772;stroke-miterlimit:10;}
	.st2{display:none;fill:#FFFFFF;stroke:#000000;stroke-width:0.8772;stroke-miterlimit:10;}
	.st3{fill:none;stroke:#000000;stroke-width:1.48;stroke-linecap:round;stroke-miterlimit:10;}
	.st4{fill:none;stroke:#000000;stroke-width:0.5;stroke-linecap:round;stroke-miterlimit:10;}
</style>
<g id="Layer_1">
	<circle class="st1" cx="10" cy="6" r="0.3"/>
	<circle class="st1" cx="6" cy="6" r="0.3"/>
	<circle class="st1" cx="10" cy="10" r="0.3"/>
	<circle class="st1" cx="6" cy="10" r="0.3"/>
	<circle class="st1" cx="10" cy="6" r="0.3"/>
	<circle class="st1" cx="8" cy="8" r="0.3"/>
</g>
<g id="Layer_3">
</g>
<g id="_x31_">
</g>
<g id="_x32_">
	<g>
		<path d="M8,1.6l5.5,3.2v6.4L8,14.4l-5.5-3.2V4.8L8,1.6 M8,0.6c-0.2,0-0.3,0-0.5,0.1L2,3.9C1.7,4.1,1.5,4.4,1.5,4.8v6.4
			c0,0.4,0.2,0.7,0.5,0.9l5.5,3.2c0.2,0.1,0.3,0.1,0.5,0.1s0.3,0,0.5-0.1l5.5-3.2c0.3-0.2,0.5-0.5,0.5-0.9V4.8
			c0-0.4-0.2-0.7-0.5-0.9L8.5,0.7C8.3,0.6,8.2,0.6,8,0.6L8,0.6z"/>
	</g>
</g>
</svg>
