<?xml version="1.0" encoding="UTF-8"?><svg id="Layer_1" xmlns="http://www.w3.org/2000/svg" viewBox="0 0 98.79 271.45"><defs><style>.cls-1{stroke-width:.5px;}.cls-1,.cls-2,.cls-3{stroke:#1d1d1b;stroke-miterlimit:10;}.cls-1,.cls-3{fill:none;stroke-linecap:round;}.cls-2{fill:#fff;stroke-width:.88px;}.cls-3{stroke-width:1.48px;}.cls-4{fill:#1d1d1b;stroke-width:0px;}</style></defs><path class="cls-4" d="M60.25,45l-6-3.5c-.08-.04-.16-.07-.25-.07s-.18.02-.25.07l-6,3.5c-.08.04-.14.11-.18.18-.04.08-.07.16-.07.25v7c0,.09.02.17.07.25.04.08.11.14.18.18l6,3.5c.08.04.16.07.25.07s.18-.02.25-.07l6-3.5c.08-.04.14-.11.18-.18.04-.08.07-.16.07-.25v-7c0-.09-.02-.17-.07-.25-.04-.08-.11-.14-.18-.18h0ZM59.5,52.15l-5.5,3.21-5.5-3.21v-6.43l5.5-3.21,5.5,3.21v6.43Z"/><path class="cls-4" d="M41.18,45l-6-3.5c-.08-.04-.16-.07-.25-.07s-.18.02-.25.07l-6,3.5c-.08.04-.14.11-.18.18-.04.08-.07.16-.07.25v7c0,.09.02.17.07.25.04.08.11.14.18.18l6,3.5c.08.04.16.07.25.07s.18-.02.25-.07l6-3.5c.08-.04.14-.11.18-.18.04-.08.07-.16.07-.25v-7c0-.09-.02-.17-.07-.25-.04-.08-.11-.14-.18-.18h0ZM40.42,52.15l-5.5,3.21-5.5-3.21v-6.43l5.5-3.21,5.5,3.21v6.43Z"/><path class="cls-4" d="M32.3,51.34c0-.62.34-1.02.89-1.02.13,0,.24.02.32.05-.18.24-.28.43-.28.8,0,.97.68,1.57,1.81,1.57s1.99-.59,1.99-1.96c0-1.25-.79-2.05-2.41-2.05v-.35c1.58-.04,2.13-.82,2.13-1.73,0-.98-.64-1.62-1.66-1.62s-1.56.6-1.56,1.43c0,.48.11.76.31.98-.06.01-.14.01-.22.01-.56,0-.97-.37-.97-1.06,0-.9.85-1.83,2.43-1.83,1.44,0,2.49.7,2.49,2.09,0,1.1-1.01,1.81-2.01,1.87v.02c1.57.08,2.36,1.16,2.36,2.23,0,1.63-1.3,2.42-2.9,2.42s-2.75-.85-2.75-1.87Z"/><path class="cls-4" d="M41.18,5.12l-6-3.5c-.08-.04-.16-.07-.25-.07s-.18.02-.25.07l-6,3.5c-.08.04-.14.11-.18.18-.04.08-.07.16-.07.25v7c0,.09.02.17.07.25.04.08.11.14.18.18l6,3.5c.08.04.16.07.25.07s.18-.02.25-.07l6-3.5c.08-.04.14-.11.18-.18.04-.08.07-.16.07-.25v-7c0-.09-.02-.17-.07-.25-.04-.08-.11-.14-.18-.18h0ZM40.42,12.26l-5.5,3.21-5.5-3.21v-6.43l5.5-3.21,5.5,3.21v6.43Z"/><path class="cls-4" d="M33.33,13.2v-.13c1.02-.32,1.25-.36,1.25-.97v-6.19c0-.58-.28-.61-1.38-.98v-.12h2.18v7.29c0,.61.28.65,1.25.97v.13h-3.3Z"/><path class="cls-4" d="M1.13,10.2v-.13c1.02-.32,1.25-.36,1.25-.97V2.91c0-.58-.28-.61-1.38-.98v-.12h2.18v7.29c0,.61.28.65,1.25.97v.13H1.13Z"/><path class="cls-4" d="M.6,19.33v-.79h.26c1.16,0,1.93-.55,2.08-1.5h.96v8.65h-1.03v-6.36H.6Z"/><path class="cls-4" d="M51.9,52.46c-.49-.5-.73-1.16-.71-1.99h1.09c-.05,1.2.61,1.82,1.66,1.82s1.76-.65,1.76-1.62-.71-1.59-1.82-1.59h-.61v-.89h.59c1.1,0,1.71-.64,1.71-1.51s-.66-1.4-1.58-1.4c-1.04,0-1.64.65-1.64,1.79h-1.08c-.01-.82.23-1.47.74-1.97.52-.5,1.18-.76,1.99-.76.76,0,1.38.2,1.9.61.52.4.77.96.77,1.67,0,.92-.43,1.57-1.3,1.94v.08c.97.34,1.44,1.13,1.44,2.05,0,.75-.26,1.36-.8,1.82-.54.47-1.22.7-2.06.7s-1.55-.25-2.04-.76Z"/><path class="cls-4" d="M60.25,5.12l-6-3.5c-.08-.04-.16-.07-.25-.07s-.18.02-.25.07l-6,3.5c-.08.04-.14.11-.18.18-.04.08-.07.16-.07.25v7c0,.09.02.17.07.25.04.08.11.14.18.18l6,3.5c.08.04.16.07.25.07s.18-.02.25-.07l6-3.5c.08-.04.14-.11.18-.18.04-.08.07-.16.07-.25v-7c0-.09-.02-.17-.07-.25-.04-.08-.11-.14-.18-.18h0ZM59.5,12.26l-5.5,3.21-5.5-3.21v-6.43l5.5-3.21,5.5,3.21v6.43Z"/><path class="cls-4" d="M51.28,6.85v-.79h.26c1.16,0,1.93-.55,2.08-1.5h.96v8.65h-1.03v-6.36h-2.27Z"/><path class="cls-4" d="M15.96,10.2v-.13c1.02-.32,1.25-.36,1.25-.97V2.91c0-.58-.28-.61-1.38-.98v-.12h2.18v7.29c0,.61.28.65,1.25.97v.13h-3.3Z"/><path class="cls-4" d="M15.3,19.69v-1.13h.31c1.15,0,1.94-.58,2.05-1.52h1.39v8.65h-1.49v-6h-2.27Z"/><path class="cls-4" d="M60.25,25.3l-6-3.5c-.08-.04-.16-.07-.25-.07s-.18.02-.25.07l-6,3.5c-.08.04-.14.11-.18.18-.04.08-.07.16-.07.25v7c0,.09.02.17.07.25.04.08.11.14.18.18l6,3.5c.08.04.16.07.25.07s.18-.02.25-.07l6-3.5c.08-.04.14-.11.18-.18.04-.08.07-.16.07-.25v-7c0-.09-.02-.17-.07-.25-.04-.08-.11-.14-.18-.18h0ZM59.5,32.44l-5.5,3.21-5.5-3.21v-6.43l5.5-3.21,5.5,3.21v6.43Z"/><path class="cls-4" d="M41.18,25.3l-6-3.5c-.08-.04-.16-.07-.25-.07s-.18.02-.25.07l-6,3.5c-.08.04-.14.11-.18.18-.04.08-.07.16-.07.25v7c0,.09.02.17.07.25.04.08.11.14.18.18l6,3.5c.08.04.16.07.25.07s.18-.02.25-.07l6-3.5c.08-.04.14-.11.18-.18.04-.08.07-.16.07-.25v-7c0-.09-.02-.17-.07-.25-.04-.08-.11-.14-.18-.18h0ZM40.42,32.44l-5.5,3.21-5.5-3.21v-6.43l5.5-3.21,5.5,3.21v6.43Z"/><path class="cls-4" d="M35.54,32.65c1.21,0,1.51-.08,2.16-1.19h.12l-.26,1.92h-5.61v-.07l1.39-1.48c1.3-1.37,3.15-3.08,3.15-4.68,0-1.1-.61-1.81-1.71-1.81s-1.57.72-1.57,1.56c0,.48.11.82.31,1.04-.06.01-.14.01-.22.01-.56,0-.96-.43-.96-1.1,0-1.02.94-1.99,2.44-1.99,1.68,0,2.61,1.03,2.61,2.29,0,1.7-1.33,2.69-4.35,5.49h2.51Z"/><path class="cls-4" d="M56.7,32.45v.94h-5.58v-.3c0-.37.07-.74.16-1.02.04-.14.11-.29.2-.44.19-.32.26-.48.55-.77l.32-.32.4-.32.37-.29c.07-.06.22-.16.42-.3.2-.16.35-.25.41-.29,1.02-.72,1.55-1.3,1.55-2.22,0-.97-.62-1.55-1.59-1.55-1.09,0-1.69.67-1.63,1.73h-1.04c-.04-.79.2-1.43.71-1.92.52-.49,1.19-.74,2.03-.74.79,0,1.43.23,1.91.68.48.46.72,1.04.72,1.78,0,1.24-.68,2.01-1.9,2.91l-.53.37c-.28.19-.46.32-.56.41-.11.08-.26.2-.47.38-.2.17-.35.31-.44.43-.18.23-.41.59-.46.92.5-.05,1.07-.07,1.69-.07h2.77Z"/><path class="cls-4" d="M79.4,45l-6-3.5c-.08-.04-.16-.07-.25-.07s-.18.02-.25.07l-6,3.5c-.08.04-.14.11-.18.18-.04.08-.07.16-.07.25v7c0,.09.02.17.07.25.04.08.11.14.18.18l6,3.5c.08.04.16.07.25.07s.18-.02.25-.07l6-3.5c.08-.04.14-.11.18-.18.04-.08.07-.16.07-.25v-7c0-.09-.02-.17-.07-.25-.04-.08-.11-.14-.18-.18h0ZM78.65,52.15l-5.5,3.21-5.5-3.21v-6.43l5.5-3.21,5.5,3.21v6.43Z"/><path class="cls-4" d="M70.22,50.44h1.51c-.01.96.55,1.47,1.46,1.47s1.5-.54,1.5-1.37-.58-1.31-1.47-1.31h-.83v-1.17h.73c.92,0,1.44-.52,1.44-1.25s-.56-1.19-1.34-1.19c-.88,0-1.4.53-1.42,1.44h-1.52c0-.83.28-1.49.83-1.98.55-.5,1.27-.76,2.16-.76.83,0,1.5.2,2.04.62.54.42.8.98.8,1.69,0,.86-.43,1.58-1.25,1.92v.07c.91.3,1.38,1.08,1.38,2,0,.77-.29,1.39-.85,1.86s-1.31.71-2.21.71c-1.86,0-2.97-1.09-2.96-2.77Z"/><path class="cls-4" d="M79.4,25.3l-6-3.5c-.08-.04-.16-.07-.25-.07s-.18.02-.25.07l-6,3.5c-.08.04-.14.11-.18.18-.04.08-.07.16-.07.25v7c0,.09.02.17.07.25.04.08.11.14.18.18l6,3.5c.08.04.16.07.25.07s.18-.02.25-.07l6-3.5c.08-.04.14-.11.18-.18.04-.08.07-.16.07-.25v-7c0-.09-.02-.17-.07-.25-.04-.08-.11-.14-.18-.18h0ZM78.65,32.44l-5.5,3.21-5.5-3.21v-6.43l5.5-3.21,5.5,3.21v6.43Z"/><path class="cls-4" d="M76.07,32.06v1.32h-5.9v-.3c0-1.02.38-1.89,1.16-2.63.3-.28.84-.68,1.64-1.25.48-.35.7-.52,1-.85.32-.33.46-.71.46-1.14,0-.82-.52-1.28-1.33-1.28-.9,0-1.42.58-1.36,1.5h-1.49c-.02-.84.23-1.51.77-2.03.54-.52,1.26-.78,2.15-.78s1.52.24,2.04.72c.52.47.77,1.09.77,1.87,0,1.21-.66,2.03-1.85,2.89l-.54.38c-.25.17-.44.3-.58.41-.43.3-1.06.83-1.17,1.26.59-.06,1.19-.1,1.77-.1h2.46Z"/><path class="cls-4" d="M79.4,5.12l-6-3.5c-.08-.04-.16-.07-.25-.07s-.18.02-.25.07l-6,3.5c-.08.04-.14.11-.18.18-.04.08-.07.16-.07.25v7c0,.09.02.17.07.25.04.08.11.14.18.18l6,3.5c.08.04.16.07.25.07s.18-.02.25-.07l6-3.5c.08-.04.14-.11.18-.18.04-.08.07-.16.07-.25v-7c0-.09-.02-.17-.07-.25-.04-.08-.11-.14-.18-.18h0ZM78.65,12.26l-5.5,3.21-5.5-3.21v-6.43l5.5-3.21,5.5,3.21v6.43Z"/><path class="cls-4" d="M70.37,7.58v-1.13h.31c1.15,0,1.94-.58,2.05-1.52h1.39v8.65h-1.49v-6h-2.27Z"/><path class="cls-4" d="M98.54,65.18l-6-3.5c-.08-.04-.16-.07-.25-.07s-.18.02-.25.07l-6,3.5c-.08.04-.14.11-.18.18-.04.08-.07.16-.07.25v7c0,.09.02.17.07.25.04.08.11.14.18.18l6,3.5c.08.04.16.07.25.07s.18-.02.25-.07l6-3.5c.08-.04.14-.11.18-.18.04-.08.07-.16.07-.25v-7c0-.09-.02-.17-.07-.25-.04-.08-.11-.14-.18-.18h0ZM97.79,72.33l-5.5,3.21-5.5-3.21v-6.43l5.5-3.21,5.5,3.21v6.43Z"/><circle class="cls-2" cx="92.29" cy="69.11" r=".3"/><circle class="cls-2" cx="75.15" cy="248.13" r=".3"/><path class="cls-4" d="M98.54,260.02l-6-3.5c-.08-.04-.16-.07-.25-.07s-.18.02-.25.07l-6,3.5c-.08.04-.14.11-.18.18-.04.08-.07.16-.07.25v7c0,.09.02.17.07.25.04.08.11.14.18.18l6,3.5c.08.04.16.07.25.07s.18-.02.25-.07l6-3.5c.08-.04.14-.11.18-.18.04-.08.07-.16.07-.25v-7c0-.09-.02-.17-.07-.25-.04-.08-.11-.14-.18-.18h0ZM97.79,267.17l-5.5,3.21-5.5-3.21v-6.43l5.5-3.21,5.5,3.21v6.43Z"/><circle class="cls-2" cx="92.29" cy="268.95" r=".3"/><circle class="cls-2" cx="73.15" cy="246.13" r=".3"/><path class="cls-4" d="M98.54,118.28l-6-3.5c-.08-.04-.16-.07-.25-.07s-.18.02-.25.07l-6,3.5c-.08.04-.14.11-.18.18-.04.08-.07.16-.07.25v7c0,.09.02.17.07.25.04.08.11.14.18.18l6,3.5c.08.04.16.07.25.07s.18-.02.25-.07l6-3.5c.08-.04.14-.11.18-.18.04-.08.07-.16.07-.25v-7c0-.09-.02-.17-.07-.25-.04-.08-.11-.14-.18-.18h0ZM97.79,125.43l-5.5,3.21-5.5-3.21v-6.43l5.5-3.21,5.5,3.21v6.43Z"/><circle class="cls-2" cx="94.29" cy="120.21" r=".3"/><circle class="cls-2" cx="90.29" cy="120.21" r=".3"/><circle class="cls-2" cx="94.29" cy="124.21" r=".3"/><circle class="cls-2" cx="90.29" cy="124.21" r=".3"/><path class="cls-4" d="M98.54,82.92l-6-3.5c-.08-.04-.16-.07-.25-.07s-.18.02-.25.07l-6,3.5c-.08.04-.14.11-.18.18-.04.08-.07.16-.07.25v7c0,.09.02.17.07.25.04.08.11.14.18.18l6,3.5c.08.04.16.07.25.07s.18-.02.25-.07l6-3.5c.08-.04.14-.11.18-.18.04-.08.07-.16.07-.25v-7c0-.09-.02-.17-.07-.25-.04-.08-.11-.14-.18-.18h0ZM97.79,90.07l-5.5,3.21-5.5-3.21v-6.43l5.5-3.21,5.5,3.21v6.43Z"/><circle class="cls-2" cx="94.29" cy="86.85" r=".3"/><circle class="cls-2" cx="90.29" cy="86.85" r=".3"/><path class="cls-4" d="M98.54,100.45l-6-3.5c-.08-.04-.16-.07-.25-.07s-.18.02-.25.07l-6,3.5c-.08.04-.14.11-.18.18-.04.08-.07.16-.07.25v7c0,.09.02.17.07.25.04.08.11.14.18.18l6,3.5c.08.04.16.07.25.07s.18-.02.25-.07l6-3.5c.08-.04.14-.11.18-.18.04-.08.07-.16.07-.25v-7c0-.09-.02-.17-.07-.25-.04-.08-.11-.14-.18-.18h0ZM97.79,107.59l-5.5,3.21-5.5-3.21v-6.43l5.5-3.21,5.5,3.21v6.43Z"/><circle class="cls-2" cx="94.29" cy="104.38" r=".3"/><circle class="cls-2" cx="90.29" cy="104.38" r=".3"/><circle class="cls-2" cx="92.29" cy="104.38" r=".3"/><circle class="cls-2" cx="71.15" cy="246.13" r=".3"/><path class="cls-4" d="M98.54,136.49l-6-3.5c-.08-.04-.16-.07-.25-.07s-.18.02-.25.07l-6,3.5c-.08.04-.14.11-.18.18-.04.08-.07.16-.07.25v7c0,.09.02.17.07.25.04.08.11.14.18.18l6,3.5c.08.04.16.07.25.07s.18-.02.25-.07l6-3.5c.08-.04.14-.11.18-.18.04-.08.07-.16.07-.25v-7c0-.09-.02-.17-.07-.25-.04-.08-.11-.14-.18-.18h0ZM97.79,143.63l-5.5,3.21-5.5-3.21v-6.43l5.5-3.21,5.5,3.21v6.43Z"/><circle class="cls-2" cx="94.29" cy="138.42" r=".3"/><circle class="cls-2" cx="90.29" cy="138.42" r=".3"/><circle class="cls-2" cx="94.29" cy="142.42" r=".3"/><circle class="cls-2" cx="90.29" cy="142.42" r=".3"/><circle class="cls-2" cx="94.29" cy="138.42" r=".3"/><circle class="cls-2" cx="92.29" cy="140.42" r=".3"/><circle class="cls-2" cx="71.15" cy="244.13" r=".3"/><circle class="cls-2" cx="73.15" cy="248.13" r=".3"/><circle class="cls-2" cx="73.15" cy="244.13" r=".3"/><circle class="cls-2" cx="71.15" cy="248.13" r=".3"/><circle class="cls-2" cx="75.15" cy="244.13" r=".3"/><circle class="cls-2" cx="75.15" cy="246.13" r=".3"/><path class="cls-4" d="M98.54,207.09l-6-3.5c-.08-.04-.16-.07-.25-.07s-.18.02-.25.07l-6,3.5c-.08.04-.14.11-.18.18-.04.08-.07.16-.07.25v7c0,.09.02.17.07.25.04.08.11.14.18.18l6,3.5c.08.04.16.07.25.07s.18-.02.25-.07l6-3.5c.08-.04.14-.11.18-.18.04-.08.07-.16.07-.25v-7c0-.09-.02-.17-.07-.25-.04-.08-.11-.14-.18-.18h0ZM97.79,214.23l-5.5,3.21-5.5-3.21v-6.43l5.5-3.21,5.5,3.21v6.43Z"/><circle class="cls-2" cx="94.29" cy="209.02" r=".3"/><circle class="cls-2" cx="90.29" cy="209.02" r=".3"/><circle class="cls-2" cx="92.29" cy="211.02" r=".3"/><circle class="cls-2" cx="92.29" cy="213.02" r=".3"/><circle class="cls-2" cx="92.29" cy="209.02" r=".3"/><circle class="cls-2" cx="94.29" cy="213.02" r=".3"/><circle class="cls-2" cx="90.29" cy="213.02" r=".3"/><circle class="cls-2" cx="94.29" cy="209.02" r=".3"/><circle class="cls-2" cx="90.29" cy="211.02" r=".3"/><circle class="cls-2" cx="94.29" cy="211.02" r=".3"/><path class="cls-4" d="M98.54,189.12l-6-3.5c-.08-.04-.16-.07-.25-.07s-.18.02-.25.07l-6,3.5c-.08.04-.14.11-.18.18-.04.08-.07.16-.07.25v7c0,.09.02.17.07.25.04.08.11.14.18.18l6,3.5c.08.04.16.07.25.07s.18-.02.25-.07l6-3.5c.08-.04.14-.11.18-.18.04-.08.07-.16.07-.25v-7c0-.09-.02-.17-.07-.25-.04-.08-.11-.14-.18-.18h0ZM97.79,196.26l-5.5,3.21-5.5-3.21v-6.43l5.5-3.21,5.5,3.21v6.43Z"/><circle class="cls-2" cx="94.29" cy="191.05" r=".3"/><circle class="cls-2" cx="90.29" cy="191.05" r=".3"/><circle class="cls-2" cx="92.29" cy="193.05" r=".3"/><circle class="cls-2" cx="92.29" cy="191.05" r=".3"/><circle class="cls-2" cx="94.29" cy="195.05" r=".3"/><circle class="cls-2" cx="90.29" cy="195.05" r=".3"/><circle class="cls-2" cx="94.29" cy="191.05" r=".3"/><circle class="cls-2" cx="90.29" cy="193.05" r=".3"/><circle class="cls-2" cx="94.29" cy="193.05" r=".3"/><path class="cls-4" d="M98.54,171.59l-6-3.5c-.08-.04-.16-.07-.25-.07s-.18.02-.25.07l-6,3.5c-.08.04-.14.11-.18.18-.04.08-.07.16-.07.25v7c0,.09.02.17.07.25.04.08.11.14.18.18l6,3.5c.08.04.16.07.25.07s.18-.02.25-.07l6-3.5c.08-.04.14-.11.18-.18.04-.08.07-.16.07-.25v-7c0-.09-.02-.17-.07-.25-.04-.08-.11-.14-.18-.18h0ZM97.79,178.73l-5.5,3.21-5.5-3.21v-6.43l5.5-3.21,5.5,3.21v6.43Z"/><circle class="cls-2" cx="94.29" cy="173.52" r=".3"/><circle class="cls-2" cx="90.29" cy="173.52" r=".3"/><circle class="cls-2" cx="92.29" cy="175.52" r=".3"/><circle class="cls-2" cx="94.29" cy="177.52" r=".3"/><circle class="cls-2" cx="90.29" cy="177.52" r=".3"/><circle class="cls-2" cx="94.29" cy="173.52" r=".3"/><circle class="cls-2" cx="90.29" cy="175.52" r=".3"/><circle class="cls-2" cx="94.29" cy="175.52" r=".3"/><path class="cls-4" d="M98.54,154.13l-6-3.5c-.08-.04-.16-.07-.25-.07s-.18.02-.25.07l-6,3.5c-.08.04-.14.11-.18.18-.04.08-.07.16-.07.25v7c0,.09.02.17.07.25.04.08.11.14.18.18l6,3.5c.08.04.16.07.25.07s.18-.02.25-.07l6-3.5c.08-.04.14-.11.18-.18.04-.08.07-.16.07-.25v-7c0-.09-.02-.17-.07-.25-.04-.08-.11-.14-.18-.18h0ZM97.79,161.28l-5.5,3.21-5.5-3.21v-6.43l5.5-3.21,5.5,3.21v6.43Z"/><circle class="cls-2" cx="94.29" cy="156.06" r=".3"/><circle class="cls-2" cx="90.29" cy="156.06" r=".3"/><circle class="cls-2" cx="94.29" cy="160.06" r=".3"/><circle class="cls-2" cx="90.29" cy="160.06" r=".3"/><circle class="cls-2" cx="94.29" cy="156.06" r=".3"/><circle class="cls-2" cx="90.29" cy="158.06" r=".3"/><circle class="cls-2" cx="94.29" cy="158.06" r=".3"/><path class="cls-4" d="M98.54,224.55l-6-3.5c-.08-.04-.16-.07-.25-.07s-.18.02-.25.07l-6,3.5c-.08.04-.14.11-.18.18-.04.08-.07.16-.07.25v7c0,.09.02.17.07.25.04.08.11.14.18.18l6,3.5c.08.04.16.07.25.07s.18-.02.25-.07l6-3.5c.08-.04.14-.11.18-.18.04-.08.07-.16.07-.25v-7c0-.09-.02-.17-.07-.25-.04-.08-.11-.14-.18-.18h0ZM97.79,231.69l-5.5,3.21-5.5-3.21v-6.43l5.5-3.21,5.5,3.21v6.43Z"/><circle class="cls-2" cx="94.29" cy="226.48" r=".3"/><path class="cls-4" d="M79.4,65.18l-6-3.5c-.08-.04-.16-.07-.25-.07s-.18.02-.25.07l-6,3.5c-.08.04-.14.11-.18.18-.04.08-.07.16-.07.25v7c0,.09.02.17.07.25.04.08.11.14.18.18l6,3.5c.08.04.16.07.25.07s.18-.02.25-.07l6-3.5c.08-.04.14-.11.18-.18.04-.08.07-.16.07-.25v-7c0-.09-.02-.17-.07-.25-.04-.08-.11-.14-.18-.18h0ZM78.65,72.33l-5.5,3.21-5.5-3.21v-6.43l5.5-3.21,5.5,3.21v6.43Z"/><circle class="cls-2" cx="73.15" cy="69.11" r=".3"/><path class="cls-4" d="M79.4,118.28l-6-3.5c-.08-.04-.16-.07-.25-.07s-.18.02-.25.07l-6,3.5c-.08.04-.14.11-.18.18-.04.08-.07.16-.07.25v7c0,.09.02.17.07.25.04.08.11.14.18.18l6,3.5c.08.04.16.07.25.07s.18-.02.25-.07l6-3.5c.08-.04.14-.11.18-.18.04-.08.07-.16.07-.25v-7c0-.09-.02-.17-.07-.25-.04-.08-.11-.14-.18-.18h0ZM78.65,125.43l-5.5,3.21-5.5-3.21v-6.43l5.5-3.21,5.5,3.21v6.43Z"/><circle class="cls-2" cx="75.15" cy="120.21" r=".3"/><circle class="cls-2" cx="71.15" cy="120.21" r=".3"/><circle class="cls-2" cx="75.15" cy="124.21" r=".3"/><circle class="cls-2" cx="71.15" cy="124.21" r=".3"/><path class="cls-4" d="M79.4,82.92l-6-3.5c-.08-.04-.16-.07-.25-.07s-.18.02-.25.07l-6,3.5c-.08.04-.14.11-.18.18-.04.08-.07.16-.07.25v7c0,.09.02.17.07.25.04.08.11.14.18.18l6,3.5c.08.04.16.07.25.07s.18-.02.25-.07l6-3.5c.08-.04.14-.11.18-.18.04-.08.07-.16.07-.25v-7c0-.09-.02-.17-.07-.25-.04-.08-.11-.14-.18-.18h0ZM78.65,90.07l-5.5,3.21-5.5-3.21v-6.43l5.5-3.21,5.5,3.21v6.43Z"/><circle class="cls-2" cx="75.15" cy="86.85" r=".3"/><circle class="cls-2" cx="71.15" cy="86.85" r=".3"/><path class="cls-4" d="M79.4,100.45l-6-3.5c-.08-.04-.16-.07-.25-.07s-.18.02-.25.07l-6,3.5c-.08.04-.14.11-.18.18-.04.08-.07.16-.07.25v7c0,.09.02.17.07.25.04.08.11.14.18.18l6,3.5c.08.04.16.07.25.07s.18-.02.25-.07l6-3.5c.08-.04.14-.11.18-.18.04-.08.07-.16.07-.25v-7c0-.09-.02-.17-.07-.25-.04-.08-.11-.14-.18-.18h0ZM78.65,107.59l-5.5,3.21-5.5-3.21v-6.43l5.5-3.21,5.5,3.21v6.43Z"/><circle class="cls-2" cx="75.15" cy="104.38" r=".3"/><circle class="cls-2" cx="71.15" cy="104.38" r=".3"/><circle class="cls-2" cx="73.15" cy="104.38" r=".3"/><path class="cls-4" d="M79.4,136.49l-6-3.5c-.08-.04-.16-.07-.25-.07s-.18.02-.25.07l-6,3.5c-.08.04-.14.11-.18.18-.04.08-.07.16-.07.25v7c0,.09.02.17.07.25.04.08.11.14.18.18l6,3.5c.08.04.16.07.25.07s.18-.02.25-.07l6-3.5c.08-.04.14-.11.18-.18.04-.08.07-.16.07-.25v-7c0-.09-.02-.17-.07-.25-.04-.08-.11-.14-.18-.18h0ZM78.65,143.63l-5.5,3.21-5.5-3.21v-6.43l5.5-3.21,5.5,3.21v6.43Z"/><circle class="cls-2" cx="75.15" cy="138.42" r=".3"/><circle class="cls-2" cx="71.15" cy="138.42" r=".3"/><circle class="cls-2" cx="75.15" cy="142.42" r=".3"/><circle class="cls-2" cx="71.15" cy="142.42" r=".3"/><circle class="cls-2" cx="75.15" cy="138.42" r=".3"/><circle class="cls-2" cx="73.15" cy="140.42" r=".3"/><path class="cls-4" d="M79.4,207.09l-6-3.5c-.08-.04-.16-.07-.25-.07s-.18.02-.25.07l-6,3.5c-.08.04-.14.11-.18.18-.04.08-.07.16-.07.25v7c0,.09.02.17.07.25.04.08.11.14.18.18l6,3.5c.08.04.16.07.25.07s.18-.02.25-.07l6-3.5c.08-.04.14-.11.18-.18.04-.08.07-.16.07-.25v-7c0-.09-.02-.17-.07-.25-.04-.08-.11-.14-.18-.18h0ZM78.65,214.23l-5.5,3.21-5.5-3.21v-6.43l5.5-3.21,5.5,3.21v6.43Z"/><circle class="cls-2" cx="75.15" cy="209.02" r=".3"/><circle class="cls-2" cx="71.15" cy="209.02" r=".3"/><circle class="cls-2" cx="73.15" cy="211.02" r=".3"/><circle class="cls-2" cx="73.15" cy="213.02" r=".3"/><circle class="cls-2" cx="73.15" cy="209.02" r=".3"/><circle class="cls-2" cx="75.15" cy="213.02" r=".3"/><circle class="cls-2" cx="71.15" cy="213.02" r=".3"/><circle class="cls-2" cx="75.15" cy="209.02" r=".3"/><circle class="cls-2" cx="71.15" cy="211.02" r=".3"/><circle class="cls-2" cx="75.15" cy="211.02" r=".3"/><path class="cls-4" d="M79.4,189.12l-6-3.5c-.08-.04-.16-.07-.25-.07s-.18.02-.25.07l-6,3.5c-.08.04-.14.11-.18.18-.04.08-.07.16-.07.25v7c0,.09.02.17.07.25.04.08.11.14.18.18l6,3.5c.08.04.16.07.25.07s.18-.02.25-.07l6-3.5c.08-.04.14-.11.18-.18.04-.08.07-.16.07-.25v-7c0-.09-.02-.17-.07-.25-.04-.08-.11-.14-.18-.18h0ZM78.65,196.26l-5.5,3.21-5.5-3.21v-6.43l5.5-3.21,5.5,3.21v6.43Z"/><circle class="cls-2" cx="75.15" cy="191.05" r=".3"/><circle class="cls-2" cx="71.15" cy="191.05" r=".3"/><circle class="cls-2" cx="73.15" cy="193.05" r=".3"/><circle class="cls-2" cx="73.15" cy="191.05" r=".3"/><circle class="cls-2" cx="75.15" cy="195.05" r=".3"/><circle class="cls-2" cx="71.15" cy="195.05" r=".3"/><circle class="cls-2" cx="75.15" cy="191.05" r=".3"/><circle class="cls-2" cx="71.15" cy="193.05" r=".3"/><circle class="cls-2" cx="75.15" cy="193.05" r=".3"/><path class="cls-4" d="M79.4,171.59l-6-3.5c-.08-.04-.16-.07-.25-.07s-.18.02-.25.07l-6,3.5c-.08.04-.14.11-.18.18-.04.08-.07.16-.07.25v7c0,.09.02.17.07.25.04.08.11.14.18.18l6,3.5c.08.04.16.07.25.07s.18-.02.25-.07l6-3.5c.08-.04.14-.11.18-.18.04-.08.07-.16.07-.25v-7c0-.09-.02-.17-.07-.25-.04-.08-.11-.14-.18-.18h0ZM78.65,178.73l-5.5,3.21-5.5-3.21v-6.43l5.5-3.21,5.5,3.21v6.43Z"/><circle class="cls-2" cx="75.15" cy="173.52" r=".3"/><circle class="cls-2" cx="71.15" cy="173.52" r=".3"/><circle class="cls-2" cx="73.15" cy="175.52" r=".3"/><circle class="cls-2" cx="75.15" cy="177.52" r=".3"/><circle class="cls-2" cx="71.15" cy="177.52" r=".3"/><circle class="cls-2" cx="75.15" cy="173.52" r=".3"/><circle class="cls-2" cx="71.15" cy="175.52" r=".3"/><circle class="cls-2" cx="75.15" cy="175.52" r=".3"/><path class="cls-4" d="M79.4,154.13l-6-3.5c-.08-.04-.16-.07-.25-.07s-.18.02-.25.07l-6,3.5c-.08.04-.14.11-.18.18-.04.08-.07.16-.07.25v7c0,.09.02.17.07.25.04.08.11.14.18.18l6,3.5c.08.04.16.07.25.07s.18-.02.25-.07l6-3.5c.08-.04.14-.11.18-.18.04-.08.07-.16.07-.25v-7c0-.09-.02-.17-.07-.25-.04-.08-.11-.14-.18-.18h0ZM78.65,161.28l-5.5,3.21-5.5-3.21v-6.43l5.5-3.21,5.5,3.21v6.43Z"/><circle class="cls-2" cx="75.15" cy="156.06" r=".3"/><circle class="cls-2" cx="71.15" cy="156.06" r=".3"/><circle class="cls-2" cx="75.15" cy="160.06" r=".3"/><circle class="cls-2" cx="71.15" cy="160.06" r=".3"/><circle class="cls-2" cx="75.15" cy="156.06" r=".3"/><circle class="cls-2" cx="71.15" cy="158.06" r=".3"/><circle class="cls-2" cx="75.15" cy="158.06" r=".3"/><path class="cls-4" d="M79.4,224.55l-6-3.5c-.08-.04-.16-.07-.25-.07s-.18.02-.25.07l-6,3.5c-.08.04-.14.11-.18.18-.04.08-.07.16-.07.25v7c0,.09.02.17.07.25.04.08.11.14.18.18l6,3.5c.08.04.16.07.25.07s.18-.02.25-.07l6-3.5c.08-.04.14-.11.18-.18.04-.08.07-.16.07-.25v-7c0-.09-.02-.17-.07-.25-.04-.08-.11-.14-.18-.18h0ZM78.65,231.69l-5.5,3.21-5.5-3.21v-6.43l5.5-3.21,5.5,3.21v6.43Z"/><circle class="cls-2" cx="75.15" cy="226.48" r=".3"/><circle class="cls-2" cx="73.15" cy="228.48" r=".3"/><line class="cls-3" x1="71.15" y1="230.48" x2="75.15" y2="226.48"/><line class="cls-3" x1="71.15" y1="226.48" x2="75.15" y2="230.48"/><path class="cls-4" d="M79.4,242.19l-6-3.5c-.08-.04-.16-.07-.25-.07s-.18.02-.25.07l-6,3.5c-.08.04-.14.11-.18.18-.04.08-.07.16-.07.25v7c0,.09.02.17.07.25.04.08.11.14.18.18l6,3.5c.08.04.16.07.25.07s.18-.02.25-.07l6-3.5c.08-.04.14-.11.18-.18.04-.08.07-.16.07-.25v-7c0-.09-.02-.17-.07-.25-.04-.08-.11-.14-.18-.18h0ZM78.65,249.33l-5.5,3.21-5.5-3.21v-6.43l5.5-3.21,5.5,3.21v6.43Z"/><circle class="cls-2" cx="73.15" cy="246.12" r=".3"/><line class="cls-1" x1="70.63" y1="250.12" x2="75.63" y2="250.12"/><line class="cls-1" x1="89.79" y1="197.05" x2="94.79" y2="197.05"/><line class="cls-1" x1="89.79" y1="162.06" x2="94.79" y2="162.06"/><line class="cls-1" x1="89.79" y1="126.21" x2="94.79" y2="126.21"/><line class="cls-1" x1="89.79" y1="90.85" x2="94.79" y2="90.85"/><line class="cls-1" x1="89.79" y1="179.52" x2="94.79" y2="179.52"/><line class="cls-1" x1="89.79" y1="144.42" x2="94.79" y2="144.42"/><line class="cls-1" x1="89.79" y1="108.38" x2="94.79" y2="108.38"/><line class="cls-1" x1="89.79" y1="73.11" x2="94.79" y2="73.11"/><line class="cls-1" x1="89.79" y1="215.02" x2="94.79" y2="215.02"/><circle class="cls-2" cx="92.29" cy="228.48" r=".3"/><line class="cls-3" x1="90.29" y1="230.48" x2="94.29" y2="226.48"/><line class="cls-3" x1="90.29" y1="226.48" x2="94.29" y2="230.48"/><circle class="cls-2" cx="92.29" cy="228.48" r=".3"/><line class="cls-3" x1="89.46" y1="228.48" x2="95.12" y2="228.48"/><line class="cls-3" x1="92.29" y1="225.65" x2="92.29" y2="231.31"/><circle class="cls-2" cx="92.29" cy="263.95" r=".3"/><line class="cls-3" x1="90.29" y1="265.95" x2="94.29" y2="261.95"/><line class="cls-3" x1="90.29" y1="261.95" x2="94.29" y2="265.95"/><circle class="cls-2" cx="92.29" cy="263.95" r=".3"/><line class="cls-3" x1="89.46" y1="263.95" x2="95.12" y2="263.95"/><line class="cls-3" x1="92.29" y1="261.13" x2="92.29" y2="266.78"/><path class="cls-4" d="M98.54,242.19l-6-3.5c-.08-.04-.16-.07-.25-.07s-.18.02-.25.07l-6,3.5c-.08.04-.14.11-.18.18-.04.08-.07.16-.07.25v7c0,.09.02.17.07.25.04.08.11.14.18.18l6,3.5c.08.04.16.07.25.07s.18-.02.25-.07l6-3.5c.08-.04.14-.11.18-.18.04-.08.07-.16.07-.25v-7c0-.09-.02-.17-.07-.25-.04-.08-.11-.14-.18-.18h0ZM97.79,249.33l-5.5,3.21-5.5-3.21v-6.43l5.5-3.21,5.5,3.21v6.43Z"/><circle class="cls-2" cx="92.29" cy="251.12" r=".3"/><circle class="cls-2" cx="92.29" cy="246.12" r=".3"/><line class="cls-3" x1="90.29" y1="248.12" x2="94.29" y2="244.12"/><line class="cls-3" x1="90.29" y1="244.12" x2="94.29" y2="248.12"/><circle class="cls-2" cx="92.29" cy="246.12" r=".3"/><line class="cls-3" x1="89.46" y1="246.12" x2="95.12" y2="246.12"/><line class="cls-3" x1="92.29" y1="243.29" x2="92.29" y2="248.95"/><circle class="cls-2" cx="92.29" cy="258.95" r=".3"/></svg>